<?xml version="1.0" encoding="UTF-8" standalone="no"?>
<svg
   xmlns:dc="http://purl.org/dc/elements/1.1/"
   xmlns:cc="http://creativecommons.org/ns#"
   xmlns:rdf="http://www.w3.org/1999/02/22-rdf-syntax-ns#"
   xmlns:svg="http://www.w3.org/2000/svg"
   xmlns="http://www.w3.org/2000/svg"
   xmlns:xlink="http://www.w3.org/1999/xlink"
   version="1.1"
   id="svg4200"
   viewBox="0 0 412.00593 98.361887"
   height="27.759911mm"
   width="116.27723mm">
  <defs
     id="defs4202">
    <linearGradient
       id="linearGradient4835">
      <stop
         id="stop4837"
         offset="0"
         style="stop-color:#d1571f;stop-opacity:1" />
      <stop
         id="stop4839"
         offset="1"
         style="stop-color:#fcf4a9;stop-opacity:1" />
    </linearGradient>
    <linearGradient
       gradientTransform="translate(0,2)"
       gradientUnits="userSpaceOnUse"
       y2="258.91879"
       x2="272.43011"
       y1="333.76871"
       x1="272.43011"
       id="linearGradient4841"
       xlink:href="#linearGradient4835" />
    <linearGradient
       y2="258.91879"
       x2="272.43011"
       y1="333.76871"
       x1="272.43011"
       gradientTransform="translate(0,2)"
       gradientUnits="userSpaceOnUse"
       id="linearGradient4861"
       xlink:href="#linearGradient4835" />
  </defs>
  <metadata
     id="metadata4205">
    <rdf:RDF>
      <cc:Work
         rdf:about="">
        <dc:format>image/svg+xml</dc:format>
        <dc:type
           rdf:resource="http://purl.org/dc/dcmitype/StillImage" />
        <dc:title></dc:title>
      </cc:Work>
    </rdf:RDF>
  </metadata>
  <g
     transform="translate(1.6048899,-261.2553)"
     id="layer1">
    <g
       id="g4849">
      <g
         id="text4786"
         style="font-style:normal;font-weight:normal;font-size:113.77033997px;line-height:125%;font-family:sans-serif;letter-spacing:0px;word-spacing:0px;fill:url(#linearGradient4861);fill-opacity:1;stroke:none;stroke-width:1px;stroke-linecap:butt;stroke-linejoin:miter;stroke-opacity:1">
        <path
           id="path4902"
           style="font-style:normal;font-variant:normal;font-weight:500;font-stretch:normal;line-height:100%;font-family:TE-7002;-inkscape-font-specification:'TE-7002 Medium';letter-spacing:-26.49002266px;fill:url(#linearGradient4861);fill-opacity:1"
           d="m 194.3982,323.82899 q 0,0 1.70656,0.91016 1.82032,0.79639 4.66458,1.59278 2.84426,0.7964 6.25737,1.02394 3.41311,0.11377 6.82622,-1.13771 -2.84426,3.98197 -6.59868,6.02983 -3.64065,2.04787 -6.93999,2.95803 -3.29934,0.79639 -5.57475,0.79639 -2.2754,0.11377 -2.2754,0.11377 -4.43705,-0.34131 -9.32917,-1.82032 -4.77836,-1.47902 -8.64655,-4.77836 -3.86819,-3.29934 -5.91606,-8.64654 -2.04786,-5.46098 -0.91016,-13.53867 0.91016,-6.59868 4.77836,-11.71835 3.98196,-5.23343 9.32916,-7.50884 -1.02393,-0.11377 -3.98196,0.11377 -2.84426,0.22754 -6.48491,1.47901 -3.52688,1.13771 -7.16753,3.75443 -3.52688,2.50294 -5.91606,7.2813 -0.68262,-6.48491 1.36525,-11.1495 2.04786,-4.77835 5.68851,-8.07769 3.64066,-3.29934 8.19147,-5.34721 4.55081,-2.04786 8.64655,-3.18557 4.2095,-1.25147 7.39507,-1.70655 3.18557,-0.45508 4.09573,-0.56885 0,0 1.1377,-0.22754 1.25148,-0.22754 3.52688,-1.13771 2.38918,-0.91016 5.68852,-2.61671 3.41311,-1.82033 7.73638,-5.0059 -3.86819,4.55081 -4.43704,7.39507 -0.56885,2.84426 0.11377,3.86819 0.79639,0.91017 1.02393,1.02394 0.22754,0.11377 2.61672,1.47901 2.50295,1.25148 5.46098,4.09573 2.95803,2.84426 4.09573,6.71245 1.25147,3.8682 -1.02393,9.10163 -2.27541,5.23344 -10.23933,11.26326 1.02393,-5.80228 -0.11377,-9.10162 -1.02394,-3.29934 -2.95803,-4.66459 -1.9341,-1.47901 -4.20951,-1.70655 -2.2754,-0.34131 -3.86819,0 -1.47901,0.22754 -1.59278,0.22754 -2.27541,0.68262 -4.55082,2.73049 -2.16163,1.93409 -3.86819,4.77835 -1.59278,2.73049 -2.50294,6.02983 -0.7964,3.29934 -0.34132,6.71245 0.45509,3.29934 2.61672,6.48491 2.16164,3.18557 6.48491,5.68852 z" />
        <path
           id="path4904"
           style="font-style:normal;font-variant:normal;font-weight:500;font-stretch:normal;line-height:100%;font-family:TE-7002;-inkscape-font-specification:'TE-7002 Medium';letter-spacing:-26.49002266px;fill:url(#linearGradient4861);fill-opacity:1"
           d="m 256.00553,326.67324 q 0,0 1.47902,0.56886 1.47901,0.56885 3.52688,0.91016 2.16163,0.34131 4.43704,0.22754 2.38918,-0.22754 4.2095,-1.70656 -2.38917,3.29934 -5.11966,5.0059 -2.61672,1.59278 -5.0059,2.27541 -2.2754,0.56885 -3.75442,0.56885 -1.47901,0 -1.47901,0 0,0 -2.38918,-0.34131 -2.27541,-0.45508 -5.34721,-1.59279 -2.95803,-1.1377 -5.91605,-3.18557 -2.95803,-2.16163 -4.20951,-5.57474 l -12.51473,0 q 0,0.22754 0.34131,1.82032 0.34131,1.47902 1.59278,4.32327 1.36525,2.84426 3.75442,5.68852 -7.85015,-1.59278 -12.74228,-4.89212 -4.89212,-3.41311 -7.39507,-7.16753 -2.50294,-3.8682 -3.52688,-7.50885 -1.02393,-3.75442 -1.1377,-5.91605 0,-2.27541 0,-2.50295 0.45508,-6.71245 3.41311,-11.94589 3.0718,-5.23343 6.82622,-8.98785 3.86819,-3.8682 7.62261,-6.25737 3.86819,-2.50295 5.91606,-3.64065 0,0 1.02393,-0.68263 1.13771,-0.68262 3.52688,-2.38917 2.38918,-1.82033 6.1436,-4.77836 3.75442,-3.0718 9.10163,-7.73638 -1.1377,3.98196 -2.04787,6.37114 -0.91016,2.2754 -0.91016,2.2754 0,0 -1.02393,2.16164 -1.02394,2.16164 -3.18557,5.80229 -2.04787,3.52688 -5.34721,8.19146 -3.18557,4.55082 -7.73638,9.44294 l 10.3531,-0.22754 q 1.02393,1.02393 2.16164,2.27541 1.1377,1.1377 2.04786,2.2754 1.02393,1.02394 1.70656,1.82033 0.68262,0.79639 0.79639,1.1377 1.47901,4.77836 2.38918,8.76032 1.02393,3.86819 2.04786,6.93999 1.02394,2.95803 2.38918,5.0059 1.47901,2.04786 3.98196,3.18556 z" />
        <path
           id="path4906"
           style="font-style:normal;font-variant:normal;font-weight:500;font-stretch:normal;line-height:100%;font-family:TE-7002;-inkscape-font-specification:'TE-7002 Medium';letter-spacing:-26.49002266px;fill:url(#linearGradient4861);fill-opacity:1"
           d="m 309.64894,294.13493 q 1.93409,2.2754 2.38917,4.55081 0.56886,2.16164 0.34132,3.41311 -0.11377,1.1377 -0.11377,1.25147 -1.02394,3.29934 -2.50295,5.34721 -1.47902,1.9341 -5.0059,3.86819 -2.2754,1.36525 -4.77835,2.16164 -2.38918,0.68262 -4.66459,1.02393 -2.16163,0.34131 -4.09573,0.34131 -1.93409,0 -3.29934,-0.22754 -1.59278,0.34131 -3.41311,0.22754 -1.82032,-0.11377 -3.98196,-1.02393 0.11377,2.38918 0.91016,4.55081 0.91017,2.04787 2.61672,3.75442 1.70656,1.59279 4.43704,2.73049 2.73049,1.02394 6.71245,1.25148 0,0 1.13771,0 1.1377,0 2.73049,-0.11377 1.70655,-0.22754 3.41311,-0.56886 1.70655,-0.45508 2.84425,-1.1377 -2.38917,3.0718 -5.46097,5.0059 -3.0718,1.82032 -5.91606,2.84425 -2.73049,1.02394 -4.66458,1.36525 -1.82033,0.34131 -1.82033,0.34131 -0.22754,0 -1.82032,0.11377 -1.59279,0.11377 -4.32328,0.11377 -2.73049,-0.11377 -4.89212,-0.68262 -5.91606,-1.36525 -9.55671,-4.43704 -3.64065,-3.0718 -5.57475,-6.48491 -1.82032,-3.41311 -2.61671,-6.71245 -0.68263,-3.41311 -0.68263,-5.34721 0,-2.04787 0,-2.16164 0.45508,-6.02982 3.0718,-10.69441 2.73049,-4.77835 6.1436,-8.19146 3.52688,-3.41311 6.93999,-5.57475 3.41311,-2.27541 5.34721,-3.29934 0,0 0.91016,-0.56885 1.02393,-0.68262 3.0718,-2.16164 2.16164,-1.59278 5.57475,-4.32327 3.41311,-2.73049 8.19146,-6.93999 -0.91016,3.64065 -1.82032,5.68852 -0.7964,2.04786 -0.7964,2.04786 -0.11377,0.22754 -1.02393,1.82033 -0.91016,1.59278 -2.38918,3.52688 -1.36524,1.93409 -2.38917,2.16163 5.23343,0.56886 9.10162,2.38918 3.86819,1.82033 6.37114,3.75442 2.61672,1.9341 3.86819,3.52688 1.36525,1.47902 1.36525,1.47902 l 0.11377,0 z m -4.43705,5.68851 q 0.45509,-2.2754 -1.02393,-3.75442 -1.36524,-1.59278 -3.41311,-2.38917 -1.93409,-0.91017 -3.86819,-1.25148 -1.9341,-0.45508 -2.38918,-0.45508 -4.77835,0.79639 -8.07769,3.18557 -3.18557,2.38918 -3.75442,4.77835 -0.45508,2.38918 0,4.09574 0.45508,1.59278 1.47901,2.61671 1.02393,1.02394 2.38918,1.59279 1.47901,0.56885 3.0718,0.79639 1.25147,-0.11377 3.64065,-0.56885 2.38918,-0.45508 4.89212,-1.47901 2.50295,-1.02394 4.43705,-2.73049 2.04786,-1.70656 2.61671,-4.43705 z" />
        <path
           id="path4908"
           style="font-style:normal;font-variant:normal;font-weight:500;font-stretch:normal;line-height:100%;font-family:TE-7002;-inkscape-font-specification:'TE-7002 Medium';letter-spacing:-26.49002266px;fill:url(#linearGradient4861);fill-opacity:1"
           d="m 342.00663,299.5959 q -1.25148,1.36525 -3.52688,2.95803 -2.27541,1.47902 -4.77836,3.41311 -2.38917,1.82033 -4.55081,4.32328 -2.04787,2.50294 -3.0718,5.68851 0,0 -0.45508,2.27541 -0.45508,2.16164 0.11377,5.34721 0.56885,3.07179 2.73049,6.37113 2.16163,3.29934 7.50884,5.46098 -9.32917,-1.47901 -15.24522,-4.77835 -5.80229,-3.41311 -8.87409,-7.16753 -3.0718,-3.8682 -4.32327,-7.50885 -1.25148,-3.64065 -1.36525,-5.80228 -0.11377,-2.27541 -0.11377,-2.50295 0.45508,-6.71245 3.41311,-11.94589 3.0718,-5.23343 6.82622,-8.98785 3.86819,-3.8682 7.62261,-6.25737 3.8682,-2.50295 5.91606,-3.64065 0,0 1.02394,-0.68263 1.1377,-0.68262 3.52688,-2.38917 2.38917,-1.82033 6.14359,-4.77836 3.75443,-3.0718 9.10163,-7.73638 -1.25147,3.98196 -2.16164,6.37114 -0.79639,2.2754 -0.79639,2.2754 -1.25147,3.64066 -3.64065,7.62262 -2.38918,3.86819 -6.37114,7.05376 0,0 0.7964,0.45508 0.79639,0.45508 2.95802,1.47901 2.27541,0.91017 6.25737,2.27541 4.09573,1.25148 10.58064,2.95803 -5.80228,2.04787 -9.32916,3.98196 -3.41311,1.82033 -4.66459,2.84426 -1.1377,0.91016 -1.25147,1.02393 z" />
        <path
           id="path4910"
           style="font-style:normal;font-variant:normal;font-weight:500;font-stretch:normal;line-height:100%;font-family:TE-7002;-inkscape-font-specification:'TE-7002 Medium';letter-spacing:-26.49002266px;fill:url(#linearGradient4861);fill-opacity:1"
           d="m 398.56894,326.10439 q 0,0 1.36524,0.56885 1.47902,0.45509 3.41311,0.68263 1.9341,0.11377 3.86819,-0.45508 2.04787,-0.56886 3.18557,-2.73049 -1.47901,3.86819 -3.52688,6.02983 -2.04786,2.16163 -3.98196,3.29934 -1.82032,1.02393 -3.18557,1.36524 -1.36524,0.22754 -1.36524,0.22754 -5.46098,0.45508 -9.2154,-1.36524 -3.75442,-1.82033 -6.25737,-4.66459 -2.38918,-2.95803 -3.75442,-6.48491 -1.25147,-3.64065 -1.70655,-6.71245 0,0 -0.45509,1.9341 -0.45508,1.82032 -0.79639,4.77835 -0.34131,2.84426 -0.34131,6.37114 0.11377,3.52688 1.25147,6.71245 -4.55081,-1.59278 -7.2813,-4.89212 -2.61671,-3.41311 -4.09573,-6.71245 -1.36524,-3.41311 -1.82032,-5.91606 -0.34132,-2.61672 -0.34132,-2.61672 0,0 -0.79639,1.47902 -0.79639,1.36524 -1.59278,4.09573 -0.68263,2.73049 -0.91017,6.59868 -0.22754,3.86819 1.02394,8.64654 -4.20951,-1.25147 -6.82622,-4.32327 -2.50295,-3.18557 -3.75442,-6.82622 -1.25148,-3.75442 -1.70656,-7.39507 -0.45508,-3.64065 -0.45508,-5.80229 0.11377,-2.16164 0.11377,-2.38918 1.02393,-5.68851 2.38918,-9.10162 1.36524,-3.41311 2.95803,-5.80229 1.59278,-2.38918 3.29934,-4.2095 1.70655,-1.9341 3.29934,-4.66459 0,0 0.68262,-1.36524 0.79639,-1.36525 1.70655,-3.18557 0.91017,-1.9341 1.59279,-3.86819 0.68262,-1.9341 0.56885,-3.18557 0.22754,-0.45508 0.56885,0.68262 0.34131,1.02393 0.68262,2.50295 0.34131,1.47901 0.56885,2.84426 0.22755,1.25147 0.22755,1.25147 0,0 1.1377,-1.1377 1.25147,-1.13771 3.0718,-3.41311 1.93409,-2.38918 4.09573,-5.91606 2.27541,-3.64065 4.2095,-8.64655 1.13771,2.61672 1.25148,5.68852 0.22754,3.0718 0,5.80229 -0.22754,2.61671 -0.56886,4.43704 -0.34131,1.82033 -0.34131,1.82033 0,0 -0.45508,1.82032 -0.45508,1.70656 -1.25147,4.2095 -0.79639,2.50295 -1.82033,5.11967 -0.91016,2.50295 -2.04786,4.2095 1.1377,-1.36524 3.18557,-3.29934 2.16163,-1.93409 4.2095,-3.75442 2.04787,-1.82033 3.52688,-3.0718 1.59278,-1.25147 1.59278,-1.25147 0,0 1.70656,-1.47902 1.82032,-1.47901 4.09573,-3.64065 2.27541,-2.2754 4.43704,-4.77835 2.16164,-2.61672 3.0718,-4.89213 1.25148,3.52688 0.22754,8.41901 -1.02393,4.77835 -2.73048,9.2154 -1.70656,4.43704 -3.29934,7.62261 -1.59279,3.0718 -1.59279,3.0718 -2.50295,5.68851 -2.84426,10.46687 -0.34131,4.77835 0.68263,8.419 1.1377,3.64066 3.18556,6.1436 2.16164,2.38918 4.66459,3.41311 z" />
      </g>
      <line
         style="isolation:isolate;fill:#606060;stroke:#404040;stroke-width:7;stroke-linecap:square;stroke-linejoin:miter;stroke-miterlimit:3"
         x1="1.8951101"
         y1="349.49225"
         x2="96.032074"
         y2="349.49225"
         vector-effect="non-scaling-stroke"
         stroke-miterlimit="3"
         id="line13-1" />
      <path
         style="isolation:isolate;fill:#404040"
         d="m 1.0664062,264.20703 0,71.38672 8.3007813,0 0,-29.6875 14.8925785,0 17.285156,29.6875 9.814453,0 -19.384766,-32.08008 c 9.570667,-3.32066 14.355469,-9.70062 14.355469,-19.14062 0,-6.738 -2.092057,-11.78406 -6.27539,-15.13672 -4.182667,-3.35334 -10.651537,-5.0293 -19.408204,-5.0293 l -19.5800778,0 z m 8.3007813,7.27539 10.7910155,0 c 6.152,0 10.619011,1.04167 13.402344,3.125 2.783333,2.08334 4.175781,5.48508 4.175781,10.20508 0,4.65467 -1.366896,8.14532 -4.101562,10.47266 -2.734,2.328 -7.031292,3.49218 -12.890625,3.49218 l -11.3769535,0 0,-27.29492 z"
         id="path17-7" />
      <path
         style="isolation:isolate;fill:#404040"
         d="m 61.779297,281.19922 c -3.158,0 -6.306599,0.40737 -9.447266,1.2207 -3.141333,0.814 -6.031302,1.93714 -8.667969,3.36914 l 2.490235,6.20117 c 5.631333,-2.73466 10.676719,-4.10156 15.136719,-4.10156 3.971333,0 6.861302,0.99995 8.667968,3.00195 1.806,2.00201 2.708985,5.10341 2.708985,9.30274 l 0,3.32031 -9.082031,0.29297 c -17.284667,0.52067 -25.927735,6.18485 -25.927735,16.99219 0,5.04533 1.504958,8.93525 4.515625,11.66992 3.011333,2.73467 7.170563,4.10156 12.476563,4.10156 3.971333,0 7.28288,-0.59453 9.935547,-1.7832 2.653333,-1.188 5.315041,-3.45788 7.984374,-6.81055 l 0.390626,0 1.611328,7.61719 6.005859,0 0,-36.52344 c 0,-6.25 -1.538568,-10.79104 -4.615234,-13.62304 -3.076,-2.832 -7.803594,-4.24805 -14.183594,-4.24805 z m 10.693359,28.07617 0,4.83399 c 0,4.97999 -1.441599,8.85376 -4.322265,11.62109 -2.880667,2.76667 -6.842672,4.15039 -11.888672,4.15039 -3.19,0 -5.673266,-0.76492 -7.447266,-2.29492 -1.774,-1.53 -2.660156,-3.76012 -2.660156,-6.68946 0,-3.74333 1.423484,-6.50267 4.271484,-8.27734 2.848667,-1.774 7.496073,-2.77395 13.941407,-3.00195 l 8.105468,-0.3418 z"
         id="path21-9" />
      <path
         style="isolation:isolate;fill:#404040"
         d="m 111.79808,320.99323 0,0 0,0 q 0,7.471 -5.566,11.524 l 0,0 0,0 q -5.566,4.053 -15.624999,4.053 l 0,0 0,0 q -10.645,0 -16.602,-3.37 l 0,0 0,-7.519 0,0 q 3.858,1.953 8.277,3.076 l 0,0 0,0 q 4.419,1.123 8.52,1.123 l 0,0 0,0 q 6.348,0 9.765999,-2.026 l 0,0 0,0 q 3.418,-2.027 3.418,-6.177 l 0,0 0,0 q 0,-3.125 -2.71,-5.347 l 0,0 0,0 q -2.709999,-2.221 -10.570999,-5.249 l 0,0 0,0 q -7.471,-2.783 -10.621,-4.858 l 0,0 0,0 q -3.149,-2.075 -4.687,-4.712 l 0,0 0,0 q -1.538,-2.637 -1.538,-6.299 l 0,0 0,0 q 0,-6.543 5.322,-10.327 l 0,0 0,0 q 5.322,-3.784 14.6,-3.784 l 0,0 0,0 q 8.641999,0 16.893999,3.515 l 0,0 -2.881,6.592 0,0 q -8.055999,-3.32 -14.598999,-3.32 l 0,0 0,0 q -5.762,0 -8.692,1.807 l 0,0 0,0 q -2.929,1.806 -2.929,4.98 l 0,0 0,0 q 0,2.149 1.098,3.662 l 0,0 0,0 q 1.099,1.514 3.54,2.881 l 0,0 0,0 q 2.442,1.367 9.375,3.955 l 0,0 0,0 q 9.521999,3.467 12.866999,6.983 l 0,0 0,0 q 3.344,3.515 3.344,8.837 z"
         id="path25-9" />
      <path
         style="isolation:isolate;fill:#404040"
         d="m 129.88477,281.10156 c -3.58067,0 -6.75482,0.65113 -9.52149,1.95313 -2.76733,1.302 -5.19206,3.41765 -7.27539,6.34765 l -0.39062,0 -1.12305,-7.32422 -6.5918,0 0,77.53907 8.10547,0 0,-22.02149 c 0,-2.79933 -0.19527,-5.76138 -0.58594,-8.88672 l 0.58594,0 c 1.95333,2.66934 4.36933,4.64564 7.25,5.93164 2.88133,1.28601 6.06421,1.92969 9.54688,1.92969 6.96666,0 12.41003,-2.43411 16.33203,-7.30078 3.92266,-4.86667 5.88476,-11.69309 5.88476,-20.48242 0,-8.756 -1.92977,-15.55949 -5.78711,-20.41016 -3.85733,-4.85 -9.33302,-7.27539 -16.42968,-7.27539 z m -1.17188,6.88477 c 4.75267,0 8.43793,1.7817 11.05859,5.3457 2.62067,3.56467 3.93164,8.68409 3.93164,15.35742 10e-6,6.57534 -1.31097,11.73519 -3.93164,15.47852 -2.62066,3.74333 -6.24128,5.61523 -10.86328,5.61523 -5.534,0 -9.55388,-1.62071 -12.06054,-4.85937 -2.50667,-3.23867 -3.75977,-8.61672 -3.75977,-16.13672 l 0,-1.80664 c 0.0653,-6.608 1.31843,-11.42579 3.75977,-14.45313 2.44133,-3.02733 6.39656,-4.54101 11.86523,-4.54101 z"
         id="path27-9" />
      <path
         style="isolation:isolate;fill:#404040"
         d="m 154.36708,282.07723 0,53.516 -8.106,0 0,-53.516 8.106,0 z"
         id="path31-7" />
      <path
         style="isolation:isolate;fill:#404040"
         d="m 145.57808,267.57523 0,0 0,0 q 0,-2.783 1.367,-4.077 l 0,0 0,0 q 1.367,-1.294 3.418,-1.294 l 0,0 0,0 q 1.953,0 3.369,1.319 l 0,0 0,0 q 1.416,1.318 1.416,4.052 l 0,0 0,0 q 0,2.735 -1.416,4.078 l 0,0 0,0 q -1.416,1.342 -3.369,1.342 l 0,0 0,0 q -2.051,0 -3.418,-1.342 l 0,0 0,0 q -1.367,-1.343 -1.367,-4.078 z"
         id="path33-7" />
      <line
         id="line4847"
         stroke-miterlimit="3"
         vector-effect="non-scaling-stroke"
         y2="349.49225"
         x2="406.84402"
         y1="349.49225"
         x1="123.20334"
         style="isolation:isolate;fill:#606060;stroke:#404040;stroke-width:7.00000143;stroke-linecap:square;stroke-linejoin:miter;stroke-miterlimit:3" />
    </g>
  </g>
</svg>
