<?xml version="1.0" encoding="UTF-8" standalone="no"?>
<svg
   xmlns:dc="http://purl.org/dc/elements/1.1/"
   xmlns:cc="http://creativecommons.org/ns#"
   xmlns:rdf="http://www.w3.org/1999/02/22-rdf-syntax-ns#"
   xmlns:svg="http://www.w3.org/2000/svg"
   xmlns="http://www.w3.org/2000/svg"
   xmlns:xlink="http://www.w3.org/1999/xlink"
   width="23.45245mm"
   height="23.45245mm"
   viewBox="0 0 83.099233 83.09923"
   id="svg4200"
   version="1.1">
  <defs
     id="defs4202">
    <linearGradient
       id="linearGradient4835">
      <stop
         style="stop-color:#d1571f;stop-opacity:1"
         offset="0"
         id="stop4837" />
      <stop
         style="stop-color:#fcf4a9;stop-opacity:1"
         offset="1"
         id="stop4839" />
    </linearGradient>
    <linearGradient
       xlink:href="#linearGradient4835"
       id="linearGradient4841"
       x1="272.43011"
       y1="333.76871"
       x2="272.43011"
       y2="258.91879"
       gradientUnits="userSpaceOnUse"
       gradientTransform="translate(0,2)" />
    <linearGradient
       xlink:href="#linearGradient4835"
       id="linearGradient4861"
       gradientUnits="userSpaceOnUse"
       gradientTransform="translate(0,2)"
       x1="272.43011"
       y1="333.76871"
       x2="272.43011"
       y2="258.91879" />
    <linearGradient
       y2="258.91879"
       x2="272.43011"
       y1="333.76871"
       x1="272.43011"
       gradientTransform="translate(-337.9059,-260.39301)"
       gradientUnits="userSpaceOnUse"
       id="linearGradient841"
       xlink:href="#linearGradient4835" />
  </defs>
  <metadata
     id="metadata4205">
    <rdf:RDF>
      <cc:Work
         rdf:about="">
        <dc:format>image/svg+xml</dc:format>
        <dc:type
           rdf:resource="http://purl.org/dc/dcmitype/StillImage" />
        <dc:title></dc:title>
      </cc:Work>
    </rdf:RDF>
  </metadata>
  <path
     id="path4910"
     style="font-style:normal;font-variant:normal;font-weight:500;font-stretch:normal;font-size:medium;line-height:100%;font-family:TE-7002;-inkscape-font-specification:'TE-7002 Medium';letter-spacing:-26.49002266px;word-spacing:0px;fill:url(#linearGradient841);fill-opacity:1;stroke:none;stroke-width:1px;stroke-linecap:butt;stroke-linejoin:miter;stroke-opacity:1"
     d="m 60.663035,63.711379 q 0,0 1.36524,0.56885 1.47902,0.45509 3.41311,0.68263 1.9341,0.11377 3.86819,-0.45508 2.04787,-0.56886 3.18557,-2.73049 -1.47901,3.86819 -3.52688,6.02983 -2.04786,2.16163 -3.98196,3.29934 -1.82032,1.02393 -3.18557,1.36524 -1.36524,0.22754 -1.36524,0.22754 -5.46098,0.45508 -9.2154,-1.36524 -3.75442,-1.82033 -6.25737,-4.66459 -2.38918,-2.95803 -3.75442,-6.48491 -1.25147,-3.64065 -1.70655,-6.71245 0,0 -0.45509,1.9341 -0.45508,1.82032 -0.79639,4.77835 -0.34131,2.84426 -0.34131,6.37114 0.11377,3.52688 1.25147,6.71245 -4.55081,-1.59278 -7.2813,-4.89212 -2.61671,-3.41311 -4.09573,-6.71245 -1.36524,-3.41311 -1.82032,-5.91606 -0.34132,-2.61672 -0.34132,-2.61672 0,0 -0.79639,1.47902 -0.79639,1.36524 -1.59278,4.09573 -0.68263,2.73049 -0.91017,6.59868 -0.22754,3.86819 1.02394,8.64654 -4.209511,-1.25147 -6.826221,-4.32327 -2.50295,-3.18557 -3.75442,-6.82622 -1.25148,-3.75442 -1.70656,-7.39507 -0.45508,-3.64065 -0.45508,-5.80229 0.11377,-2.16164 0.11377,-2.38918 1.02393,-5.68851 2.38918,-9.10162 1.36524,-3.41311 2.95803,-5.80229 1.59278,-2.38918 3.29934,-4.2095 1.706551,-1.9341 3.299341,-4.66459 0,0 0.68262,-1.36524 0.79639,-1.36525 1.70655,-3.18557 0.91017,-1.9341 1.59279,-3.86819 0.68262,-1.9341 0.56885,-3.18557 0.22754,-0.45508 0.56885,0.68262 0.34131,1.02393 0.68262,2.50295 0.34131,1.47901 0.56885,2.84426 0.22755,1.25147 0.22755,1.25147 0,0 1.1377,-1.1377 1.25147,-1.13771 3.0718,-3.41311 1.93409,-2.38918 4.09573,-5.9160604 2.27541,-3.64065 4.2095,-8.646549975607 Q 42.914865,2.6167086 43.028635,5.6885086 q 0.22754,3.0718 0,5.8022904 -0.22754,2.61671 -0.56886,4.43704 -0.34131,1.82033 -0.34131,1.82033 0,0 -0.45508,1.82032 -0.45508,1.70656 -1.25147,4.2095 -0.79639,2.50295 -1.82033,5.11967 -0.91016,2.50295 -2.04786,4.2095 1.1377,-1.36524 3.18557,-3.29934 2.16163,-1.93409 4.2095,-3.75442 2.04787,-1.82033 3.52688,-3.0718 1.59278,-1.25147 1.59278,-1.25147 0,0 1.70656,-1.47902 1.82032,-1.47901 4.09573,-3.64065 2.27541,-2.2754 4.43704,-4.77835 2.16164,-2.6167204 3.0718,-4.8921304 1.25148,3.5268804 0.22754,8.4190104 -1.02393,4.77835 -2.73048,9.2154 -1.70656,4.43704 -3.29934,7.62261 -1.59279,3.0718 -1.59279,3.0718 -2.50295,5.68851 -2.84426,10.46687 -0.34131,4.77835 0.68263,8.419 1.1377,3.64066 3.18556,6.1436 2.16164,2.38918 4.66459,3.41311 z" />
  <line
     style="isolation:isolate;vector-effect:non-scaling-stroke;fill:#606060;stroke:#404040;stroke-width:7.00000143;stroke-linecap:square;stroke-linejoin:miter;stroke-miterlimit:3"
     x1="13.913156"
     y1="79.599228"
     x2="69.186073"
     y2="79.599228"
     stroke-miterlimit="3"
     id="line4847" />
</svg>
